HIERARCHY
ROOT Hips
{
	OFFSET 0.000000 0.000000 0.000000
	CHANNELS 6 Xposition Yposition Zposition Zrotation Yrotation Xrotation 
	JOINT LowerBack
	{
		OFFSET 0.000000 0.000000 0.000000
		CHANNELS 3 Zrotation Yrotation Xrotation
		JOINT Spine
		{
			OFFSET 0.028270 2.035590 -0.193380
			CHANNELS 3 Zrotation Yrotation Xrotation
			JOINT Spine1
			{
				OFFSET 0.056720 2.048850 -0.042750
				CHANNELS 3 Zrotation Yrotation Xrotation
				JOINT Neck
				{
					OFFSET 0.000000 0.000000 0.000000
					CHANNELS 3 Zrotation Yrotation Xrotation
					JOINT Neck1
					{
						OFFSET -0.054170 1.746240 0.172020
						CHANNELS 3 Zrotation Yrotation Xrotation
						JOINT Head
						{
							OFFSET 0.104070 1.761360 -0.123970
							CHANNELS 3 Zrotation Yrotation Xrotation
							End Site
							{
								OFFSET 0.000000 0.000000 0.000000
							}
						}
					}
				}
				JOINT LeftShoulder
				{
					OFFSET 0.000000 0.000000 0.000000
					CHANNELS 3 Zrotation Yrotation Xrotation
					JOINT LeftArm
					{
						OFFSET 3.362410 1.200890 -0.311210
						CHANNELS 3 Zrotation Yrotation Xrotation
						JOINT LeftForeArm
						{
							OFFSET 4.983000 -0.000000 -0.000000
							CHANNELS 3 Zrotation Yrotation Xrotation
							JOINT LeftHand
							{
								OFFSET 3.483560 -0.000000 -0.000000
								CHANNELS 3 Zrotation Yrotation Xrotation
								JOINT LeftFingerBase
								{
									OFFSET 0.000000 0.000000 0.000000
									CHANNELS 3 Zrotation Yrotation Xrotation
									JOINT LeftHandIndex1
									{
										OFFSET 0.715260 -0.000000 -0.000000
										CHANNELS 3 Zrotation Yrotation Xrotation
										End Site
										{
											OFFSET 0.000000 0.000000 0.000000
										}
									}
								}
								JOINT LThumb
								{
									OFFSET 0.000000 0.000000 0.000000
									CHANNELS 3 Zrotation Yrotation Xrotation
									End Site
									{
										OFFSET 0.000000 0.000000 0.000000
									}
								}
							}
						}
					}
				}
				JOINT RightShoulder
				{
					OFFSET 0.000000 0.000000 0.000000
					CHANNELS 3 Zrotation Yrotation Xrotation
					JOINT RightArm
					{
						OFFSET -3.136600 1.374050 -0.404650
						CHANNELS 3 Zrotation Yrotation Xrotation
						JOINT RightForeArm
						{
							OFFSET -5.241900 -0.000000 -0.000000
							CHANNELS 3 Zrotation Yrotation Xrotation
							JOINT RightHand
							{
								OFFSET -3.444170 -0.000000 -0.000000
								CHANNELS 3 Zrotation Yrotation Xrotation
								JOINT RightFingerBase
								{
									OFFSET 0.000000 0.000000 0.000000
									CHANNELS 3 Zrotation Yrotation Xrotation
									JOINT RightHandIndex1
									{
										OFFSET -0.622530 -0.000000 -0.000000
										CHANNELS 3 Zrotation Yrotation Xrotation
										End Site
										{
											OFFSET 0.000000 0.000000 0.000000
										}
									}
								}
								JOINT RThumb
								{
									OFFSET 0.000000 0.000000 0.000000
									CHANNELS 3 Zrotation Yrotation Xrotation
									End Site
									{
										OFFSET 0.000000 0.000000 0.000000
									}
								}
							}
						}
					}
				}
			}
		}
	}
}
}
MOTION
Frames: 18
Frame Time: 0.008333
25.552524 17.401235 2.168421 108.458803 -86.160515 -78.056211 -4.678536 0.001982 -6.335259 -2.155050 0.090323 -4.750508 -7.400218 0.048970 -1.786764 11.539937 -7.483077 -7.445216 -2.838873 -0.224580 0.008418 0.000000 0.000000 0.000000 8.121516 11.798529 0.966650 -61.872801 40.115881 29.320052 179.883858 -84.959736 179.977005 17.736576 -3.317218 -0.546372 -0.284617 0.149419 -0.000000 0.000000 0.000000 0.000000 0.000000 0.000000 0.000000 11.162619 0.252595 -0.519836 77.775509 25.751560 31.519303 179.139021 78.629908 179.988171 -4.791666 17.480777 -0.802076 0.179516 -0.927548 0.000000 0.000000 0.000000 0.000000 0.000000 0.000000 0.000000 
25.337799 17.431293 2.172241 105.564551 -86.245388 -75.250508 -4.769674 -0.035759 -6.312304 -2.174288 0.061189 -4.745618 -7.417364 0.021442 -1.799379 11.556537 -7.529496 -7.463675 -2.811301 -0.222088 0.004210 0.000000 0.000000 0.000000 8.230803 11.802951 0.983784 -62.042150 40.047757 28.869193 179.890353 -84.700704 179.976159 17.682090 -3.357894 -0.551665 -0.284568 0.153371 -0.000000 0.000000 0.000000 0.000000 0.000000 0.000000 0.000000 10.970412 0.220937 -0.570908 78.182495 25.331842 31.569884 179.138371 78.493610 179.988329 -4.641399 17.348940 -0.771094 0.173831 -0.927203 -0.000000 0.000000 0.000000 0.000000 0.000000 0.000000 0.000000 
25.124221 17.450088 2.176696 102.419620 -86.345850 -72.218400 -4.823382 -0.070422 -6.263264 -2.184142 0.032758 -4.735135 -7.431111 -0.005680 -1.814398 11.553827 -7.563948 -7.482071 -2.783416 -0.219513 -0.000179 0.000000 0.000000 0.000000 8.300335 11.800141 1.006183 -62.216082 39.878455 28.424982 179.896343 -84.533608 179.975397 17.523361 -3.386374 -0.551778 -0.282566 0.157272 -0.000000 0.000000 0.000000 0.000000 0.000000 0.000000 0.000000 10.761069 0.196979 -0.624214 78.587238 24.827808 31.597856 179.150996 78.441381 179.987752 -4.558343 17.197062 -0.750417 0.168818 -0.924950 -0.000000 0.000000 0.000000 0.000000 0.000000 0.000000 0.000000 
24.906071 17.452116 2.191015 87.510899 -86.590772 -57.293251 -4.466062 -0.221545 -6.335626 -2.088106 -0.151523 -4.736321 -7.425682 -0.193306 -1.801553 11.451940 -7.614233 -7.506767 -2.739384 -0.215611 -0.000305 0.000000 0.000000 0.000000 8.256986 11.723059 1.018568 -62.395903 39.656195 28.081608 179.901734 -84.437481 179.974601 17.252988 -3.422955 -0.549581 -0.279505 0.162351 -0.000000 0.000000 0.000000 0.000000 0.000000 0.000000 0.000000 10.353572 0.059451 -0.727346 78.975189 24.139976 31.593608 179.173609 78.405143 179.986045 -4.545233 17.025088 -0.739987 0.163086 -0.918915 0.000000 0.000000 0.000000 0.000000 0.000000 0.000000 0.000000 
24.694957 17.447666 2.197253 84.154134 -86.672280 -54.108907 -4.460204 -0.233914 -6.225464 -2.081566 -0.161239 -4.714389 -7.430897 -0.202833 -1.823836 11.409585 -7.628427 -7.523643 -2.712362 -0.213025 -0.004788 0.000000 0.000000 0.000000 8.249051 11.703859 1.045700 -62.584967 39.295227 27.669014 179.906665 -84.433130 179.974085 16.882606 -3.478450 -0.546629 -0.273456 0.166983 -0.000000 0.000000 0.000000 0.000000 0.000000 0.000000 0.000000 10.117364 0.053999 -0.777046 79.347777 23.491047 31.579317 179.208068 78.487953 179.984106 -4.596393 16.831819 -0.739213 0.159851 -0.913339 -0.000000 0.000000 0.000000 0.000000 0.000000 0.000000 0.000000 
24.484680 17.431377 2.204570 81.001503 -86.766534 -51.158254 -4.426664 -0.234925 -6.087073 -2.068772 -0.160796 -4.687007 -7.432314 -0.202038 -1.848184 11.350140 -7.640024 -7.541996 -2.687360 -0.210553 -0.009958 0.000000 0.000000 0.000000 8.201416 11.678135 1.071756 -62.777607 38.850567 27.277967 179.910950 -84.492528 179.973723 16.424317 -3.569380 -0.545688 -0.265710 0.172274 -0.000000 0.000000 0.000000 0.000000 0.000000 0.000000 0.000000 9.880437 0.051779 -0.820869 79.693100 22.790465 31.556942 179.249482 78.626619 179.981729 -4.696698 16.617054 -0.744942 0.157413 -0.906288 0.000000 0.000000 0.000000 0.000000 0.000000 0.000000 0.000000 
24.275756 17.403048 2.212849 78.248162 -86.868489 -48.632701 -4.378057 -0.226258 -5.925334 -2.052913 -0.150802 -4.655569 -7.430549 -0.191385 -1.875211 11.276262 -7.648409 -7.562219 -2.665510 -0.208290 -0.015935 0.000000 0.000000 0.000000 8.114523 11.646122 1.095505 -62.968032 38.338096 26.908859 179.914598 -84.598979 179.973522 15.898432 -3.709985 -0.548755 -0.256653 0.178397 -0.000000 0.000000 0.000000 0.000000 0.000000 0.000000 0.000000 9.651382 0.054661 -0.856403 80.009376 22.045127 31.530323 179.295585 78.816815 179.979179 -4.819296 16.380765 -0.752774 0.155267 -0.897872 -0.000000 0.000000 0.000000 0.000000 0.000000 0.000000 0.000000 
24.067555 17.362842 2.222126 75.964576 -86.985131 -46.596771 -4.314456 -0.209706 -5.747369 -2.034475 -0.133263 -4.620809 -7.426963 -0.172739 -1.901665 11.194080 -7.662389 -7.589034 -2.648848 -0.206348 -0.024026 0.000000 0.000000 0.000000 7.980505 11.615437 1.114136 -63.143735 37.767622 26.563052 179.917649 -84.732951 179.973468 15.335746 -3.903484 -0.556522 -0.246891 0.185338 -0.000000 0.000000 0.000000 0.000000 0.000000 0.000000 0.000000 9.449466 0.054208 -0.879820 80.287864 21.277549 31.515984 179.343061 79.059038 179.976785 -4.938385 16.125642 -0.758611 0.153170 -0.888183 0.000000 0.000000 0.000000 0.000000 0.000000 0.000000 0.000000 
23.860373 17.310837 2.232205 74.262928 -87.116284 -45.151753 -4.243167 -0.188777 -5.562838 -2.015345 -0.111377 -4.584552 -7.422850 -0.149294 -1.926429 11.108975 -7.682974 -7.625188 -2.639057 -0.204831 -0.034995 0.000000 0.000000 0.000000 7.793581 11.592007 1.126411 -63.290961 37.151488 26.241348 179.920261 -84.874874 179.973533 14.767228 -4.151404 -0.569286 -0.237053 0.193076 -0.000000 0.000000 0.000000 0.000000 0.000000 0.000000 0.000000 9.289794 0.049583 -0.888671 80.525559 20.497323 31.521036 179.389834 79.357804 179.974862 -5.023718 15.856956 -0.758154 0.150614 -0.877333 -0.000000 0.000000 0.000000 0.000000 0.000000 0.000000 0.000000 
23.653812 17.247365 2.242876 73.199479 -87.264942 -44.341452 -4.166799 -0.167207 -5.382314 -1.996272 -0.089066 -4.548390 -7.419787 -0.125033 -1.947068 11.027566 -7.713606 -7.674997 -2.637864 -0.203824 -0.050048 0.000000 0.000000 0.000000 7.546181 11.584855 1.131087 -63.393678 36.494877 25.946435 179.922673 -85.007484 179.973640 14.227164 -4.445899 -0.586636 -0.227854 0.201458 -0.000000 0.000000 0.000000 0.000000 0.000000 0.000000 0.000000 9.189515 0.036800 -0.880815 80.717881 19.715239 31.553336 179.434132 79.720224 179.973684 -5.050382 15.582273 -0.748302 0.147247 -0.865443 -0.000000 0.000000 0.000000 0.000000 0.000000 0.000000 0.000000 
23.447991 17.172985 2.253958 72.758629 -87.434598 -44.140046 -4.084398 -0.148696 -5.215175 -1.977014 -0.070502 -4.513417 -7.419134 -0.104252 -1.960428 10.956752 -7.756908 -7.743582 -2.646796 -0.203378 -0.070632 0.000000 0.000000 0.000000 7.232706 11.606304 1.127818 -63.438747 35.791963 25.683756 179.924980 -85.121174 179.973814 13.750711 -4.764231 -0.606870 -0.220040 0.210124 -0.000000 0.000000 0.000000 0.000000 0.000000 0.000000 0.000000 9.165138 0.012190 -0.855224 80.859327 18.939737 31.617242 179.475230 80.157599 179.973427 -5.002785 15.315880 -0.728055 0.142876 -0.852723 -0.000000 0.000000 0.000000 0.000000 0.000000 0.000000 0.000000 
23.243045 17.087989 2.264754 73.213997 -87.606808 -44.800952 -4.017617 -0.139394 -5.075868 -1.962015 -0.060372 -4.484393 -7.421505 -0.091959 -1.973941 10.896730 -7.797926 -7.826175 -2.665616 -0.203557 -0.095348 0.000000 0.000000 0.000000 6.847663 11.641980 1.117885 -63.413081 35.065707 25.447499 179.927877 -85.192194 179.973947 13.344336 -5.136645 -0.634182 -0.213838 0.219648 -0.000000 0.000000 0.000000 0.000000 0.000000 0.000000 0.000000 9.211689 -0.009605 -0.812407 80.962743 18.142529 31.691680 179.514911 80.677331 179.974090 -4.868437 15.052080 -0.695818 0.136987 -0.839064 -0.000000 0.000000 0.000000 0.000000 0.000000 0.000000 0.000000 
23.038658 16.993639 2.275285 74.280160 -87.795622 -46.030411 -3.948759 -0.140768 -4.969405 -1.946987 -0.061943 -4.458095 -7.427281 -0.091403 -1.971417 10.860567 -7.858920 -7.938384 -2.695571 -0.204228 -0.128722 0.000000 0.000000 0.000000 6.398237 11.732407 1.101175 -63.315072 34.251589 25.264965 179.931003 -85.246253 179.973960 13.057707 -5.470860 -0.660470 -0.210293 0.228593 -0.000000 0.000000 0.000000 0.000000 0.000000 0.000000 0.000000 9.357185 -0.055397 -0.752932 81.006859 17.357455 31.795688 179.552860 81.296158 179.975643 -4.667610 14.825498 -0.656581 0.130490 -0.824968 -0.000000 0.000000 0.000000 0.000000 0.000000 0.000000 0.000000 
22.835635 16.890793 2.284814 76.210640 -87.974739 -48.070230 -3.899940 -0.158450 -4.903178 -1.936192 -0.079078 -4.439683 -7.436835 -0.106920 -1.968449 10.843168 -7.918051 -8.067702 -2.735387 -0.205487 -0.167145 0.000000 0.000000 0.000000 5.873377 11.836823 1.079021 -63.136067 33.388593 25.119583 179.935174 -85.253022 179.973859 12.879445 -5.823948 -0.693029 -0.209273 0.238014 -0.000000 0.000000 0.000000 0.000000 0.000000 0.000000 0.000000 9.582074 -0.103732 -0.677874 81.010384 16.536237 31.890943 179.592553 82.017199 179.977824 -4.409219 14.620010 -0.611148 0.123133 -0.810166 -0.000000 0.000000 0.000000 0.000000 0.000000 0.000000 0.000000 
22.633925 16.780911 2.293097 78.837453 -88.139144 -50.744246 -3.871909 -0.194310 -4.880838 -1.928818 -0.113668 -4.426487 -7.448631 -0.140394 -1.952273 10.852399 -7.989303 -8.223849 -2.783718 -0.207076 -0.213500 0.000000 0.000000 0.000000 5.300514 11.983154 1.053997 -62.895689 32.406258 25.038675 179.939904 -85.251568 179.973550 12.831650 -6.116017 -0.725061 -0.211287 0.246791 -0.000000 0.000000 0.000000 0.000000 0.000000 0.000000 0.000000 9.892720 -0.173811 -0.591813 80.965177 15.688863 31.975736 179.635836 82.847068 179.980332 -4.133511 14.459756 -0.566111 0.115920 -0.795044 -0.000000 0.000000 0.000000 0.000000 0.000000 0.000000 0.000000 
22.433970 16.665522 2.299717 82.100555 -88.271220 -53.989405 -3.876430 -0.250269 -4.901209 -1.926464 -0.166513 -4.418808 -7.461443 -0.192857 -1.926048 10.886686 -8.069970 -8.402303 -2.838293 -0.208879 -0.266560 0.000000 0.000000 0.000000 4.692315 12.154982 1.027886 -62.608757 31.290452 25.025575 179.945273 -85.248270 179.972986 12.908092 -6.343922 -0.756765 -0.216265 0.255072 -0.000000 0.000000 0.000000 0.000000 0.000000 0.000000 0.000000 10.273597 -0.265968 -0.498344 80.878677 14.793012 32.025438 179.684998 83.781813 179.982785 -3.877072 14.340694 -0.526071 0.109414 -0.779558 -0.000000 0.000000 0.000000 0.000000 0.000000 0.000000 0.000000 
22.235901 16.546569 2.304405 85.756276 -88.359679 -57.565807 -3.920018 -0.325903 -4.957916 -1.929601 -0.236388 -4.415198 -7.473663 -0.263192 -1.889843 10.944170 -8.162151 -8.599605 -2.896494 -0.210721 -0.325421 0.000000 0.000000 0.000000 4.069770 12.341811 1.002379 -62.300200 30.014640 25.088283 179.951131 -85.258757 179.972092 13.100012 -6.490101 -0.786346 -0.224061 0.262814 -0.000000 0.000000 0.000000 0.000000 0.000000 0.000000 0.000000 10.707960 -0.385572 -0.402066 80.755825 13.833824 32.018837 179.741197 84.810611 179.984803 -3.681668 14.258662 -0.496225 0.104303 -0.763684 -0.000000 0.000000 0.000000 0.000000 0.000000 0.000000 0.000000 
22.040254 16.426218 2.307176 89.399966 -88.400089 -61.080351 -4.002871 -0.418527 -5.038619 -1.937677 -0.320221 -4.413659 -7.484066 -0.348370 -1.845933 11.020614 -8.267826 -8.809576 -2.955689 -0.212459 -0.388388 0.000000 0.000000 0.000000 3.451763 12.525542 0.978354 -61.997752 28.565091 25.229991 179.957374 -85.292135 179.970782 13.391824 -6.543570 -0.811502 -0.234361 0.270094 -0.000000 0.000000 0.000000 0.000000 0.000000 0.000000 0.000000 11.175243 -0.536958 -0.306994 80.601186 12.797515 31.934807 179.804070 85.913059 179.986048 -3.586383 14.204519 -0.480871 0.101165 -0.747371 -0.000000 0.000000 0.000000 0.000000 0.000000 0.000000 0.000000 
